<?xml version="1.0" encoding="UTF-8"?>
<svg id="Ebene_2" data-name="Ebene 2" xmlns="http://www.w3.org/2000/svg" viewBox="0 0 11.42021 11.2653">
  <defs>
    <style>
      .cls-1 {
        fill: none;
      }

      .cls-1, .cls-2, .cls-3 {
        stroke-linecap: round;
        stroke-miterlimit: 10;
        stroke-width: .75px;
      }

      .cls-1, .cls-3 {
        stroke: #555;
      }

      .cls-2 {
        stroke: #0078d4;
      }

      .cls-2, .cls-3 {
        fill: #fafafa;
      }

      .cls-4 {
        fill: #555;
      }
    </style>
  </defs>
  <g id="Ebene_1-2" data-name="Ebene 1">
    <rect class="cls-3" x="1.16824" y=".375" width="7.55319" height="5.19149" rx=".67355" ry=".67355"/>
    <path class="cls-4" d="M8.63092,7.55317H3.16192l-.9431-.75h6.41211c.67285,0,1.2207-.54736,1.2207-1.2207V1.46821h0l.75.93679v3.17747c0,1.08643-.88379,1.9707-1.9707,1.9707Z"/>
    <line class="cls-1" x1=".375" y1="10.1403" x2="11.04521" y2="10.1403"/>
    <line class="cls-1" x1="5.7367" y1="7.37966" x2="5.7367" y2="9.95945"/>
    <path class="cls-2" d="M6.45479,9.42226h.81383c.4054,0,.73404.3286.73404.734h0c0,.4054-.32864.73404-.73404.73404h-3.07979c-.4054,0-.73404-.32864-.73404-.73404h0c0-.4054.32864-.73404.73404-.73404l.81383.00005"/>
    <path class="cls-2" d="M6.45479,9.42226v-.42292c0-.23355-.18933-.42287-.42287-.42287h-.60638c-.23355,0-.42287.18933-.42287.42287v.42292"/>
  </g>
</svg>