<?xml version="1.0" encoding="UTF-8"?>
<svg id="Ebene_2" data-name="Ebene 2" xmlns="http://www.w3.org/2000/svg" viewBox="0 0 13.14894 13.14894">
  <defs>
    <style>
      .cls-1 {
        fill: #fff;
      }
    </style>
  </defs>
  <g id="Ebene_1-2" data-name="Ebene 1">
    <rect class="cls-1" width="13.14894" height="13.14894"/>
    <path d="M9.44681,2.15425c.87695,0,1.59042.71347,1.59042,1.59042v5.74469c0,.87695-.71347,1.59042-1.59042,1.59042H3.70212c-.87695,0-1.59042-.71347-1.59042-1.59042V3.74467c0-.87695.71347-1.59042,1.59042-1.59042h5.74469M9.44681,1.40425H3.70212c-1.29257,0-2.34042,1.04785-2.34042,2.34042v5.74469c0,1.29257,1.04785,2.34042,2.34042,2.34042h5.74469c1.29257,0,2.34042-1.04785,2.34042-2.34042V3.74467c0-1.29257-1.04785-2.34042-2.34042-2.34042h0Z"/>
    <g>
      <path d="M6.22812,4.74919c-1.00391-1.00391-1.36865-2.16943-.97607-3.11719.28418-.68604.93213-1.12939,1.65088-1.12939.71094,0,1.37793.41846,1.87695,1.16357.45312-.75732,1.10254-1.18213,1.8291-1.18213.74512,0,1.41699.46045,1.71289,1.17334.1875.45312.46875,1.66064-.96191,3.0918l-2.56641,2.56543-2.56543-2.56543Z"/>
      <path class="cls-1" d="M10.60871.73384c1.38351-.00006,2.53302,1.87933.57407,3.83838l-2.38898,2.38901-2.38901-2.38901c-1.93103-1.93109-.88446-3.81976.4978-3.81976.64725,0,1.36777.41364,1.8912,1.43076.45493-1.02954,1.16107-1.44934,1.81491-1.44937M10.6088.23384h-.00003c-.71252.00006-1.35516.3558-1.8392.99896-.51782-.63116-1.17087-.98035-1.86697-.98035-.82004,0-1.55859.50388-1.88159,1.28366-.43274,1.04465-.04761,2.3118,1.03021,3.38965l2.38904,2.38901.35355.35358.35355-.35358,2.38901-2.38901c1.53754-1.53763,1.22256-2.86472,1.01578-3.36389-.33417-.80676-1.09698-1.32803-1.94333-1.32803h0Z"/>
    </g>
  </g>
</svg>